<svg width="18" height="18" viewBox="0 0 18 18" fill="none" xmlns="http://www.w3.org/2000/svg">
<g clip-path="url(#clip0_256_6245)">
<path d="M13.2432 3.34293L9.00066 7.58593L4.75816 3.34293C4.6644 3.2492 4.53724 3.19654 4.40466 3.19654C4.27208 3.19654 4.14492 3.2492 4.05116 3.34293L3.34366 4.04993C3.24992 4.1437 3.19727 4.27085 3.19727 4.40343C3.19727 4.53601 3.24992 4.66317 3.34366 4.75693L7.58666 8.99993L3.34366 13.2424C3.24992 13.3362 3.19727 13.4634 3.19727 13.5959C3.19727 13.7285 3.24992 13.8557 3.34366 13.9494L4.05066 14.6569C4.14442 14.7507 4.27158 14.8033 4.40416 14.8033C4.53674 14.8033 4.66389 14.7507 4.75766 14.6569L9.00066 10.4139L13.2432 14.6569C13.3369 14.7507 13.4641 14.8033 13.5967 14.8033C13.7292 14.8033 13.8564 14.7507 13.9502 14.6569L14.6577 13.9499C14.7514 13.8562 14.8041 13.729 14.8041 13.5964C14.8041 13.4639 14.7514 13.3367 14.6577 13.2429L10.4147 8.99993L14.6577 4.75743C14.7514 4.66367 14.8041 4.53651 14.8041 4.40393C14.8041 4.27135 14.7514 4.1442 14.6577 4.05043L13.9507 3.34293C13.9043 3.29648 13.8492 3.25962 13.7885 3.23446C13.7279 3.20929 13.6628 3.19633 13.5972 3.19629C13.5315 3.19625 13.4665 3.20915 13.4058 3.23424C13.3451 3.25934 13.29 3.29614 13.2435 3.34254L13.2432 3.34293Z" fill="#C22F22"/>
</g>
<defs>
<clipPath id="clip0_256_6245">
<rect width="18" height="18" fill="white"/>
</clipPath>
</defs>
</svg>
